<?xml version="1.0" encoding="UTF-8" standalone="no"?>
<svg
   width="2500"
   height="2500"
   viewBox="0 0 192.756 192.756"
   version="1.1"
   id="svg22"
   sodipodi:docname="university of michigan logo.svg"
   inkscape:version="1.1 (c68e22c387, 2021-05-23)"
   xmlns:inkscape="http://www.inkscape.org/namespaces/inkscape"
   xmlns:sodipodi="http://sodipodi.sourceforge.net/DTD/sodipodi-0.dtd"
   xmlns="http://www.w3.org/2000/svg"
   xmlns:svg="http://www.w3.org/2000/svg">
  <defs
     id="defs26" />
  <sodipodi:namedview
     id="namedview24"
     pagecolor="#ffffff"
     bordercolor="#666666"
     borderopacity="1.0"
     inkscape:pageshadow="2"
     inkscape:pageopacity="0.0"
     inkscape:pagecheckerboard="0"
     showgrid="false"
     inkscape:zoom="0.3012"
     inkscape:cx="1250"
     inkscape:cy="1251.66"
     inkscape:window-width="2050"
     inkscape:window-height="1102"
     inkscape:window-x="4634"
     inkscape:window-y="2262"
     inkscape:window-maximized="0"
     inkscape:current-layer="svg22" />
  <g
     fill-rule="evenodd"
     clip-rule="evenodd"
     id="g20"
     style="display:inline"
     inkscape:label="U-M Logo">
    <path
       d="m 76.304,117.711 -4.365,-7.154 h -2.511 l -0.003,7.154 z m 40.038,0 h 6.99 v -7.154 h -2.654 z M 31.132,75.909 v -5.505 h -8.8 V 39.606 h 52.305 l 21.478,36.303 h 0.627 l 21.373,-36.303 h 52.311 v 30.798 h -8.801 v 5.505 h 25.576 v 34.648 h -25.576 v 7.154 h 9.352 v 29.697 H 113.98 V 121.607 L 96.387,150.634 78.774,121.76 v 25.648 H 21.782 v -29.697 h 9.35 v -7.154 H 5.555 V 75.909 Z"
       fill="#f2db43"
       id="path6"
       style="display:inline" />
    <path
       fill="#2f3f64"
       d="M 65.724,93.243 96.377,143.49 127.041,92.9 v 28.522 h -9.35 v 22.277 h 49.573 v -22.277 h -9.352 V 66.693 h 8.801 V 43.317 H 120.234 L 96.436,83.74 72.52,43.317 H 26.042 v 23.376 h 8.801 v 54.729 h -9.351 v 22.277 h 49.572 v -22.277 h -9.351 z"
       id="path8"
       style="display:inline" />
    <path
       fill="#f2db43"
       d="m 187.199,75.909 v 34.648 H 5.555 V 75.909 Z"
       id="path10"
       style="display:inline" />
    <path
       fill="#2f3f64"
       d="M 9.266,79.62 H 183.49 v 27.226 H 9.266 Z"
       id="path12"
       style="display:inline" />
    <path
       fill="#f2db43"
       d="M 32.657,87.321 H 36 l 2.65,6.982 2.806,-6.982 h 3.378 l 1.975,13.062 h -3.395 l -0.953,-7.518 h -0.035 l -3.135,7.518 H 37.94 l -2.997,-7.518 h -0.035 l -1.091,7.518 h -3.378 z m 24.844,13.062 H 54.106 V 87.321 h 3.395 z m 17.207,-8.678 c -0.693,-0.936 -1.819,-1.438 -2.98,-1.438 -2.078,0 -3.481,1.594 -3.481,3.621 0,2.062 1.42,3.55 3.533,3.55 1.109,0 2.217,-0.537 2.928,-1.385 v 4.07 c -1.127,0.346 -1.94,0.605 -2.997,0.605 -1.819,0 -3.552,-0.691 -4.903,-1.922 -1.438,-1.299 -2.096,-2.997 -2.096,-4.937 0,-1.784 0.676,-3.499 1.923,-4.781 1.282,-1.316 3.135,-2.113 4.971,-2.113 1.092,0 2.097,0.243 3.102,0.658 z m 15.839,0.658 v -5.042 h 3.396 v 13.062 h -3.396 v -5.352 h -4.902 v 5.352 H 82.25 V 87.321 h 3.395 v 5.042 z m 14.166,8.02 h -3.395 V 87.321 h 3.395 z m 20.566,-7.293 c -0.033,1.906 -0.172,3.533 -1.334,5.162 -1.281,1.785 -3.203,2.564 -5.387,2.564 -4.105,0 -6.965,-2.789 -6.965,-6.895 0,-4.245 2.877,-7.033 7.086,-7.033 2.686,0 4.764,1.212 5.891,3.655 l -3.223,1.351 c -0.467,-1.247 -1.455,-2.079 -2.824,-2.079 -2.234,0 -3.395,2.131 -3.395,4.123 0,2.026 1.211,4.088 3.447,4.088 1.473,0 2.598,-0.764 2.736,-2.27 H 118.54 V 93.09 Z m 9.465,5.023 -0.902,2.27 h -3.602 l 5.021,-13.062 h 3.707 l 4.92,13.062 h -3.619 l -0.85,-2.27 z m 2.373,-6.755 h -0.035 l -1.402,4.158 h 2.822 z m 12.199,-4.037 h 3.397 l 6.219,7.986 h 0.035 v -7.986 h 3.394 v 13.062 h -3.394 l -6.221,-8.003 h -0.033 v 8.003 h -3.397 z"
       id="path14"
       style="display:inline" />
  </g>
</svg>
